<?xml version="1.0" encoding="UTF-8" standalone="no"?>
<svg 
  version="1.1" 
  xmlns="http://www.w3.org/2000/svg" 
  xmlns:xlink="http://www.w3.org/1999/xlink" 
  xmlns:svg="http://www.w3.org/2000/svg"
  xmlns:rdf="http://www.w3.org/1999/02/22-rdf-syntax-ns#"
  xmlns:cc="http://creativecommons.org/ns#"
  xmlns:dc="http://purl.org/dc/elements/1.1/"
  viewBox="0 0 768 768"
  width="768"
  height="768"
>
<style>svg {background-color: white; }</style>"
<metadata id="metadata1">
Created by https://svgstud.io and licensed under CC-BY-SA 4.0 license. Please attribute https://svgstud.io
</metadata>
<metadata id="prompt">
Create an SVG illustration of a cartoon-style penguin doing pushups. The penguin should have a determined expression, with its wings slightly bent for support and its body lowered close to the ground. The scene should include subtle motion lines to emphasize movement. Keep the design simple, clean, and visually appealing, with smooth curves and a minimal color palette of black, white, and orange. The background should be minimal or optional for flexibility.
</metadata>
<metadata id="version">
7
</metadata>
<metadata id="metadata2">
<rdf:RDF>
<cc:Work
    rdf:about="">
    <cc:license
    rdf:resource="http://creativecommons.org/licenses/by-sa/4.0/" />
    <dc:creator>
        <cc:Agent>
            <dc:title>https://svgstud.io</dc:title>
        </cc:Agent>
    </dc:creator>
</cc:Work>
<cc:License
    rdf:about="http://creativecommons.org/licenses/by-sa/4.0/">
    <cc:permits
    rdf:resource="http://creativecommons.org/ns#Reproduction" />
    <cc:permits
    rdf:resource="http://creativecommons.org/ns#Distribution" />
    <cc:requires
    rdf:resource="http://creativecommons.org/ns#Notice" />
    <cc:requires
    rdf:resource="http://creativecommons.org/ns#Attribution" />
    <cc:permits
    rdf:resource="http://creativecommons.org/ns#DerivativeWorks" />
    <cc:requires
    rdf:resource="http://creativecommons.org/ns#ShareAlike" />
</cc:License>
</rdf:RDF>
</metadata>
<metadata id="uid">
bda8ba9b332180eac892027593d097582334ae93a94344b5ab5d98cafa4a132a
</metadata>
<path stroke="none" fill="black" fill-rule="evenodd" d="M417.00,637.39C382.62,637.57 348.88,637.58 342.00,637.40C335.12,637.22 318.48,636.59 305.00,635.99C291.52,635.40 271.27,634.26 260.00,633.47C248.72,632.68 234.10,631.54 227.50,630.95C220.90,630.35 208.30,628.98 199.50,627.89C190.70,626.79 176.78,624.58 168.57,622.97C160.36,621.36 150.79,619.09 147.30,617.93C143.62,616.71 139.49,614.44 137.48,612.54C134.30,609.55 134.00,608.77 134.00,603.59C134.00,598.94 134.43,597.48 136.37,595.54C137.68,594.23 141.03,592.01 143.82,590.59C146.60,589.18 152.85,586.87 157.69,585.47C162.54,584.06 174.30,581.59 183.83,579.98C193.37,578.37 209.32,576.28 219.28,575.34C236.58,573.70 237.62,573.48 242.88,570.32C245.90,568.50 252.90,565.27 258.44,563.15C263.97,561.02 270.98,558.43 274.00,557.38C279.50,555.48 279.50,555.48 279.78,545.33C280.07,535.17 280.07,535.17 273.63,525.34C270.09,519.93 265.48,512.12 263.40,508.00C261.32,503.88 258.44,497.02 257.01,492.78C254.39,485.05 254.39,485.05 247.52,491.98C243.22,496.31 238.75,499.74 235.57,501.13C231.94,502.72 228.66,503.33 224.00,503.27C220.43,503.23 215.54,502.48 213.14,501.60C210.74,500.73 207.06,498.75 204.97,497.21C202.87,495.66 199.31,492.18 197.07,489.46C194.82,486.74 191.68,481.37 190.07,477.51C188.47,473.65 186.39,466.71 185.45,462.08C184.10,455.40 183.86,450.34 184.26,437.58C184.68,424.75 185.29,419.53 187.32,411.78C188.72,406.43 191.47,398.14 193.42,393.34C195.38,388.55 199.43,380.55 202.42,375.56C205.41,370.58 210.82,362.82 214.43,358.33C218.05,353.84 224.72,346.70 229.25,342.47C233.79,338.23 240.98,332.11 245.23,328.86C249.48,325.60 253.42,322.08 253.98,321.04C254.60,319.88 255.00,309.00 255.00,293.54C255.00,277.49 255.58,262.46 256.54,253.26C257.39,245.19 259.00,234.35 260.12,229.17C261.24,224.00 263.28,216.33 264.65,212.13C266.02,207.94 268.91,200.72 271.07,196.11C273.23,191.50 277.54,183.91 280.64,179.25C283.74,174.59 289.02,167.83 292.39,164.22C295.75,160.62 301.73,155.09 305.68,151.94C309.62,148.80 316.15,144.42 320.18,142.21C324.20,140.01 331.77,136.62 337.00,134.69C342.23,132.75 350.02,130.45 354.33,129.56C358.63,128.67 367.63,127.68 374.33,127.34C381.65,126.97 389.98,127.20 395.22,127.90C400.02,128.54 407.40,129.95 411.63,131.03C415.86,132.11 422.73,134.48 426.91,136.29C431.08,138.10 438.32,142.11 443.00,145.20C447.68,148.29 454.32,153.38 457.77,156.51C461.21,159.64 466.73,165.50 470.03,169.53C473.32,173.56 478.10,180.38 480.65,184.68C483.20,188.98 486.53,195.25 488.04,198.61C489.55,201.98 491.93,208.10 493.31,212.23C494.70,216.35 496.75,223.95 497.86,229.11C498.98,234.28 500.39,242.55 501.01,247.50C501.63,252.45 502.71,270.94 503.41,288.60C504.12,306.25 504.99,321.18 505.36,321.77C505.73,322.37 509.51,325.32 513.76,328.34C518.02,331.36 525.10,337.02 529.50,340.92C533.90,344.82 541.02,351.95 545.32,356.76C549.62,361.57 555.55,369.10 558.49,373.50C561.43,377.90 565.62,385.10 567.81,389.50C569.99,393.90 572.71,400.50 573.83,404.17C574.96,407.84 576.59,414.24 577.44,418.38C578.34,422.73 579.00,430.94 579.00,437.80C579.00,446.27 578.45,451.85 577.07,457.23C576.01,461.39 573.78,467.47 572.13,470.75C570.47,474.03 566.80,479.25 563.97,482.35C560.40,486.25 556.61,489.06 551.66,491.48C547.46,493.54 542.19,495.24 538.91,495.61C535.06,496.04 531.58,495.73 527.70,494.60C523.48,493.37 520.57,491.57 516.01,487.35C512.67,484.26 509.78,481.90 509.59,482.11C509.39,482.33 507.55,485.88 505.48,490.00C503.42,494.12 499.22,501.32 496.15,506.00C493.07,510.68 486.90,518.33 482.42,523.00C477.94,527.67 473.77,532.48 473.14,533.68C472.51,534.89 472.00,539.20 472.00,543.28C472.00,550.69 472.00,550.69 481.90,551.89C487.34,552.55 496.00,554.21 501.15,555.59C506.29,556.96 514.10,559.83 518.50,561.96C522.90,564.10 528.30,567.38 530.50,569.27C534.49,572.68 534.55,572.69 551.50,574.32C560.85,575.22 574.12,576.90 581.00,578.07C587.88,579.23 598.67,581.51 605.00,583.13C611.33,584.76 620.18,587.86 624.67,590.03C629.16,592.20 633.77,595.17 634.92,596.62C636.51,598.65 637.00,600.70 637.00,605.38C636.99,609.68 636.41,612.45 635.04,614.70C633.97,616.46 631.83,618.55 630.29,619.34C628.76,620.13 624.38,621.74 620.56,622.91C616.75,624.09 608.65,625.92 602.56,626.98C596.48,628.05 585.42,629.59 578.00,630.41C570.58,631.23 555.73,632.59 545.00,633.43C534.27,634.27 515.15,635.43 502.50,636.01C489.85,636.59 451.38,637.21 417.00,637.39zM363.00,628.83C372.62,628.92 397.15,628.54 417.50,628.00C437.85,627.45 464.62,626.54 477.00,625.97C489.38,625.40 509.62,624.28 522.00,623.47C534.38,622.66 553.27,621.06 564.00,619.92C574.73,618.77 589.35,616.76 596.50,615.45C603.65,614.14 612.17,612.15 615.43,611.03C618.69,609.90 622.18,608.24 623.18,607.34C624.18,606.43 625.00,604.61 625.00,603.29C625.00,601.36 623.98,600.44 619.75,598.57C616.86,597.29 611.12,595.52 607.00,594.62C602.88,593.73 595.23,592.34 590.00,591.54C584.77,590.73 572.62,589.14 563.00,588.01C553.38,586.87 544.20,585.84 542.62,585.72C540.00,585.52 539.62,585.92 538.39,590.08C537.47,593.19 536.26,595.02 534.60,595.77C533.26,596.38 529.51,597.36 526.27,597.95C523.02,598.54 514.23,599.67 506.73,600.46C499.23,601.25 479.91,602.37 463.79,602.94C447.68,603.52 413.35,604.56 387.50,605.25C361.65,605.94 327.23,606.42 311.00,606.31C290.57,606.18 272.03,605.38 250.70,603.71C231.99,602.25 219.45,600.85 218.75,600.15C218.12,599.52 218.03,598.95 218.55,598.89C219.07,598.83 222.40,598.27 225.94,597.64C232.38,596.50 232.38,596.50 232.63,589.25C232.82,583.85 232.55,582.00 231.59,582.00C230.88,582.00 219.32,583.36 205.90,585.03C192.48,586.70 176.01,589.17 169.30,590.53C162.59,591.88 154.55,593.95 151.43,595.11C148.32,596.28 144.92,598.08 143.89,599.11C142.85,600.15 142.00,601.83 142.00,602.85C142.00,603.86 142.84,605.45 143.86,606.37C144.88,607.29 148.37,608.98 151.61,610.12C154.85,611.26 162.68,613.25 169.02,614.54C175.35,615.83 187.05,617.80 195.02,618.92C202.98,620.04 219.62,621.85 232.00,622.95C244.38,624.05 261.93,625.46 271.00,626.08C280.07,626.70 300.55,627.54 316.50,627.94C332.45,628.34 353.38,628.74 363.00,628.83zM260.11,593.00C260.75,593.00 261.78,592.33 262.39,591.51C263.37,590.20 265.34,590.20 279.50,591.51C288.30,592.32 304.64,592.99 315.82,593.00C327.92,593.00 336.91,592.58 338.07,591.96C339.51,591.19 340.00,589.86 340.00,586.66C340.00,584.31 340.61,581.55 341.35,580.54C342.09,579.52 343.21,579.01 343.85,579.41C344.49,579.80 345.00,582.52 345.00,585.50C345.00,588.46 345.37,591.11 345.83,591.39C346.28,591.67 350.44,591.29 355.08,590.53C359.71,589.77 364.29,588.85 365.25,588.47C366.58,587.95 367.00,586.63 367.00,582.94C367.00,578.65 366.63,577.83 363.75,575.66C361.96,574.32 358.02,571.94 355.00,570.36C349.50,567.50 349.50,567.50 330.00,567.58C313.30,567.66 310.00,567.93 307.00,569.47C305.07,570.45 300.69,573.32 297.25,575.82C293.81,578.33 291.00,580.75 291.00,581.19C291.00,581.64 294.71,582.05 299.25,582.12C303.79,582.18 308.82,582.52 310.44,582.87C312.06,583.22 313.41,583.93 313.44,584.46C313.47,584.99 312.12,585.70 310.43,586.05C308.74,586.39 301.99,586.32 295.43,585.88C288.87,585.45 280.68,584.54 277.24,583.86C273.37,583.10 271.46,582.32 272.24,581.83C272.93,581.39 275.07,581.02 277.00,581.00C278.93,580.98 282.18,579.96 284.24,578.73C286.29,577.51 291.58,574.05 295.99,571.05C300.40,568.06 303.67,565.28 303.25,564.90C302.84,564.51 299.21,563.69 295.18,563.07C289.84,562.26 286.75,562.26 283.78,563.06C281.53,563.67 275.15,566.42 269.60,569.19C264.04,571.96 257.25,575.00 254.50,575.95C250.94,577.18 249.41,578.27 249.19,579.73C248.97,581.27 249.98,582.39 253.18,584.16C255.61,585.49 257.62,587.39 257.80,588.51C257.97,589.61 258.30,591.06 258.53,591.75C258.75,592.44 259.46,593.00 260.11,593.00zM446.19,588.85C447.12,588.93 448.14,588.58 448.46,588.06C448.78,587.55 448.63,585.30 448.12,583.06C447.62,580.82 447.55,578.78 447.97,578.52C448.39,578.26 449.45,578.84 450.33,579.81C451.21,580.78 452.62,583.24 453.48,585.29C455.03,589.00 455.03,589.00 472.26,588.89C481.74,588.83 492.20,588.49 495.50,588.14C501.31,587.52 501.49,587.41 501.31,584.71C501.20,583.17 500.19,580.42 499.06,578.59C497.13,575.47 496.59,575.24 490.25,574.75C485.87,574.41 478.10,572.40 468.12,569.02C454.91,564.54 452.09,563.91 448.12,564.49C445.58,564.86 437.43,567.54 430.00,570.45C422.57,573.35 415.18,576.16 413.57,576.67C411.96,577.19 410.16,578.39 409.57,579.34C408.76,580.63 408.85,581.28 409.93,581.95C410.72,582.44 417.47,583.99 424.93,585.39C432.40,586.79 439.85,588.11 441.50,588.32C443.15,588.53 445.26,588.77 446.19,588.85zM508.45,587.00C509.20,587.00 513.32,586.33 517.59,585.51C521.87,584.70 525.68,583.52 526.06,582.90C526.44,582.28 526.53,580.93 526.26,579.90C525.99,578.87 523.96,576.39 521.73,574.38C519.51,572.37 514.00,569.00 509.49,566.88C504.98,564.77 496.61,561.91 490.89,560.52C484.34,558.93 477.61,558.00 472.69,558.00C468.40,558.00 462.88,558.51 460.43,559.12C457.97,559.74 455.75,560.60 455.48,561.03C455.21,561.46 458.26,562.34 462.25,562.97C466.24,563.60 474.16,565.25 479.85,566.64C485.54,568.02 492.29,570.05 494.85,571.14C497.41,572.24 500.49,574.06 501.70,575.19C502.91,576.32 504.20,578.66 504.57,580.38C504.94,582.09 505.65,584.29 506.15,585.25C506.66,586.21 507.69,587.00 508.45,587.00zM382.00,574.69C391.50,574.39 391.50,574.39 392.08,568.94C392.41,565.95 392.49,563.00 392.28,562.38C392.02,561.65 386.36,561.04 376.19,560.65C367.56,560.31 357.80,559.78 354.50,559.47C348.50,558.90 348.50,558.90 356.00,562.95C360.12,565.17 365.52,568.79 368.00,570.99C372.50,575.00 372.50,575.00 382.00,574.69zM382.00,547.85C383.38,547.92 389.53,547.54 395.67,546.99C401.82,546.45 410.14,545.32 414.17,544.49C418.20,543.65 424.43,542.05 428.00,540.92C431.57,539.80 438.55,536.92 443.50,534.53C448.45,532.14 455.43,527.92 459.00,525.17C462.57,522.41 466.66,519.11 468.08,517.83C469.51,516.55 473.21,512.64 476.31,509.15C479.41,505.67 483.92,499.82 486.33,496.15C488.74,492.49 491.85,487.25 493.24,484.50C494.63,481.75 497.12,475.68 498.76,471.00C500.40,466.32 502.81,457.32 504.11,451.00C506.15,441.10 506.48,436.65 506.49,419.00C506.50,402.47 506.05,395.60 504.17,383.50C502.89,375.25 500.33,360.62 498.49,351.00C496.64,341.38 494.59,330.01 493.93,325.75C493.26,321.44 492.23,318.00 491.61,318.01C491.00,318.01 485.89,319.58 480.26,321.50C474.62,323.42 464.50,326.10 457.76,327.46C451.02,328.82 438.52,330.67 430.00,331.57C417.81,332.86 408.64,333.09 387.00,332.65C371.88,332.34 354.31,331.42 347.97,330.62C341.63,329.81 330.95,328.17 324.24,326.96C317.53,325.76 311.44,325.00 310.70,325.29C309.96,325.57 307.31,331.36 304.79,338.15C302.28,344.94 298.17,356.82 295.66,364.54C293.15,372.26 289.32,385.53 287.14,394.04C284.96,402.54 282.18,415.35 280.96,422.50C279.74,429.65 278.53,441.57 278.26,449.00C277.91,458.85 278.22,465.04 279.42,471.90C280.32,477.06 282.39,484.63 284.02,488.72C285.66,492.81 288.95,499.15 291.34,502.82C293.73,506.50 297.89,511.95 300.59,514.93C303.29,517.92 309.08,523.03 313.46,526.28C317.84,529.52 323.91,533.44 326.96,534.97C330.01,536.50 335.73,538.91 339.69,540.33C343.64,541.75 350.84,543.66 355.69,544.58C360.53,545.50 367.88,546.58 372.00,546.98C376.12,547.39 380.62,547.78 382.00,547.85zM221.45,487.94C222.03,487.91 221.64,487.35 220.59,486.69C219.54,486.04 217.89,484.75 216.93,483.84C215.97,482.93 214.63,479.55 213.96,476.34C213.17,472.54 212.96,466.83 213.38,460.00C213.73,454.23 215.11,444.23 216.45,437.80C217.79,431.36 220.49,421.23 222.45,415.30C224.42,409.36 229.17,398.15 233.01,390.38C236.85,382.62 243.43,371.14 247.63,364.88C251.83,358.62 258.70,349.28 262.88,344.13C267.07,338.97 271.10,333.94 271.82,332.95C272.98,331.37 272.82,330.92 270.46,329.38C267.85,327.67 267.64,327.69 263.15,330.06C260.60,331.40 253.62,337.23 247.63,343.00C241.64,348.77 234.16,356.65 231.01,360.50C227.86,364.35 223.63,370.10 221.60,373.28C219.57,376.45 215.93,382.98 213.51,387.78C211.10,392.57 207.97,400.50 206.55,405.39C205.14,410.28 203.27,419.73 202.39,426.39C201.30,434.64 201.00,441.58 201.44,448.16C201.79,453.48 202.97,461.06 204.07,465.00C205.16,468.95 207.19,474.41 208.57,477.14C210.31,480.57 212.52,483.01 215.74,485.05C218.30,486.67 220.87,487.97 221.45,487.94zM459.53,484.00C458.75,484.00 457.88,483.61 457.58,483.13C457.29,482.65 457.70,479.84 458.50,476.88C459.31,473.92 461.12,467.00 462.53,461.50C463.93,456.00 465.55,450.04 466.12,448.25C466.69,446.46 467.64,445.00 468.23,445.00C468.96,445.00 469.10,447.80 468.68,453.75C468.33,458.56 467.17,465.96 466.08,470.19C465.00,474.42 463.40,479.26 462.53,480.94C461.66,482.62 460.31,484.00 459.53,484.00zM543.79,476.00C544.22,476.00 546.64,473.86 549.16,471.25C551.68,468.64 554.89,464.48 556.28,462.00C557.67,459.52 560.50,453.00 562.57,447.50C565.86,438.75 566.33,436.44 566.30,429.00C566.28,424.32 565.50,417.57 564.58,414.00C563.65,410.43 561.54,403.90 559.89,399.50C558.24,395.10 554.81,388.12 552.27,384.00C549.73,379.88 544.62,372.66 540.92,367.98C537.21,363.29 530.37,355.79 525.71,351.32C521.06,346.85 515.32,341.80 512.97,340.09C510.62,338.39 508.32,337.00 507.85,337.00C507.38,337.00 507.00,337.75 507.00,338.66C507.00,339.57 507.95,345.43 509.12,351.68C511.20,362.86 511.33,363.16 517.26,370.77C520.57,375.02 526.26,383.00 529.91,388.50C533.56,394.00 538.48,402.46 540.84,407.30C543.20,412.13 546.23,420.41 547.57,425.69C548.91,430.98 550.28,438.95 550.61,443.40C551.04,449.15 550.75,453.46 549.62,458.26C548.74,461.98 546.89,467.25 545.51,469.98C544.13,472.70 543.00,475.17 543.00,475.47C543.00,475.76 543.35,476.00 543.79,476.00zM320.39,452.00C319.32,452.00 319.00,450.20 319.00,444.18C319.00,439.79 319.72,433.98 320.65,430.93C322.29,425.52 322.29,425.51 323.20,428.50C323.70,430.15 323.84,435.44 323.52,440.26C323.19,445.09 322.67,449.70 322.36,450.51C322.04,451.33 321.16,452.00 320.39,452.00zM331.42,451.00C330.61,451.00 329.63,450.21 329.26,449.25C328.89,448.29 328.57,438.27 328.55,427.00C328.51,411.61 328.83,405.91 329.84,404.14C330.86,402.36 331.47,402.07 332.34,402.94C333.12,403.72 333.62,410.72 333.85,424.08C334.05,435.07 333.92,445.63 333.56,447.53C333.16,449.64 332.33,451.00 331.42,451.00zM241.57,434.94C242.43,434.22 246.02,428.80 249.53,422.88C253.04,416.96 257.51,408.95 259.46,405.08C261.41,401.21 263.00,397.53 263.00,396.90C263.00,396.11 262.51,396.16 261.42,397.07C260.54,397.79 258.42,400.44 256.69,402.94C254.96,405.45 250.50,412.89 246.78,419.48C243.05,426.06 240.00,432.53 240.00,433.85C240.00,435.91 240.22,436.06 241.57,434.94zM466.75,374.82C465.78,375.00 464.79,374.55 464.54,373.82C464.28,373.10 463.61,368.15 463.04,362.83C462.45,357.31 462.37,352.16 462.86,350.85C463.71,348.56 463.72,348.57 465.30,351.61C466.17,353.30 467.40,357.61 468.02,361.18C468.64,364.76 469.00,369.21 468.83,371.08C468.61,373.37 467.92,374.59 466.75,374.82zM278.59,328.96C279.33,328.99 279.90,321.24 280.36,304.74C280.74,291.40 281.71,274.42 282.54,266.99C283.36,259.57 284.50,250.57 285.08,247.00C285.65,243.43 287.05,236.22 288.19,231.00C289.33,225.78 291.60,217.68 293.24,213.00C294.88,208.32 297.59,201.80 299.25,198.50C300.92,195.20 304.54,189.12 307.31,185.00C310.08,180.88 317.11,172.75 322.92,166.95C328.82,161.07 337.04,154.10 341.50,151.20C345.90,148.35 352.31,144.78 355.75,143.28C359.19,141.78 362.00,140.15 362.00,139.65C362.00,139.14 359.85,139.03 357.12,139.39C354.44,139.75 349.14,141.09 345.35,142.38C341.56,143.67 336.45,145.75 333.98,147.01C331.52,148.26 326.12,151.56 322.00,154.33C317.88,157.11 310.88,163.01 306.45,167.44C302.01,171.87 296.56,178.20 294.33,181.50C292.10,184.80 288.92,190.20 287.26,193.50C285.60,196.80 282.57,204.00 280.51,209.50C278.46,215.00 275.72,224.22 274.42,230.00C273.13,235.78 271.38,246.12 270.53,253.00C269.68,259.88 268.70,277.89 268.34,293.03C267.86,313.43 268.00,321.12 268.88,322.77C269.53,323.99 271.74,325.87 273.78,326.95C275.83,328.03 277.99,328.93 278.59,328.96zM392.14,318.89C405.15,318.95 420.45,318.54 426.14,317.97C431.84,317.40 440.77,316.23 446.00,315.37C451.23,314.50 459.70,312.71 464.82,311.38C469.95,310.05 477.71,307.59 482.07,305.91C486.42,304.23 490.66,301.89 491.49,300.71C492.57,299.17 493.00,295.95 493.00,289.50C493.00,284.53 492.34,272.36 491.53,262.48C490.73,252.59 489.37,240.85 488.52,236.39C487.67,231.93 485.89,225.08 484.56,221.17C483.23,217.26 480.48,210.90 478.46,207.05C476.43,203.20 472.81,198.24 470.41,196.03C468.01,193.81 465.05,192.00 463.83,192.00C462.62,192.00 460.25,192.99 458.56,194.19C456.88,195.40 452.57,199.56 449.00,203.45C445.43,207.33 440.48,212.20 438.00,214.28C435.52,216.35 431.28,218.71 428.57,219.52C425.63,220.40 419.55,221.00 413.50,221.00C407.09,221.00 401.37,220.41 397.93,219.39C394.94,218.50 390.25,216.64 387.50,215.25C384.75,213.85 375.78,208.71 367.57,203.81C359.36,198.91 349.91,193.98 346.57,192.85C342.26,191.39 339.11,190.96 335.72,191.35C333.09,191.66 328.15,193.39 324.74,195.21C321.32,197.02 315.78,201.20 312.42,204.50C307.91,208.93 305.74,212.02 304.15,216.29C302.97,219.48 301.32,225.98 300.49,230.73C299.66,235.49 298.51,244.58 297.95,250.94C297.38,257.30 297.05,271.48 297.21,282.44C297.50,302.39 297.50,302.39 300.50,304.13C302.15,305.09 307.45,307.02 312.27,308.41C317.09,309.81 326.54,312.09 333.27,313.49C340.00,314.89 350.68,316.66 357.00,317.41C363.35,318.17 379.10,318.83 392.14,318.89zM438.91,285.94C437.04,285.90 434.57,285.50 433.43,285.04C432.29,284.57 424.72,279.81 416.60,274.45C404.61,266.53 401.94,264.34 402.35,262.78C402.62,261.73 405.24,257.00 408.17,252.28C411.10,247.56 415.98,241.17 419.00,238.09C422.02,235.01 426.87,231.30 429.76,229.84C432.86,228.28 435.89,227.42 437.13,227.74C438.29,228.05 442.10,232.17 445.61,236.90C449.11,241.63 453.73,249.10 455.88,253.50C458.03,257.90 460.73,262.36 461.89,263.40C463.05,264.45 464.00,265.68 464.00,266.13C464.00,266.58 460.96,270.15 457.25,274.06C453.54,277.98 448.66,282.27 446.41,283.59C444.13,284.94 440.82,285.97 438.91,285.94zM471.43,281.55C467.90,282.21 465.00,282.40 465.00,281.96C465.00,281.53 467.81,278.92 471.25,276.17C474.69,273.41 479.73,268.87 482.46,266.08C485.19,263.29 487.78,261.00 488.21,261.00C488.65,261.00 489.00,262.19 489.00,263.64C489.00,265.09 487.99,268.30 486.75,270.78C485.52,273.25 483.02,276.41 481.19,277.81C479.19,279.33 475.30,280.82 471.43,281.55zM438.71,277.92C439.38,277.96 441.72,276.09 443.90,273.75C447.72,269.68 447.79,269.47 445.69,268.85C444.49,268.49 440.12,268.19 436.00,268.17C431.88,268.15 427.65,268.47 426.62,268.88C425.05,269.50 425.80,270.31 431.12,273.73C434.63,275.98 438.05,277.87 438.71,277.92zM451.75,263.87C453.94,263.96 455.00,263.54 455.00,262.59C455.00,261.82 452.70,256.59 449.89,250.97C447.08,245.35 443.20,239.01 441.27,236.88C439.34,234.75 437.16,233.00 436.42,233.00C435.68,233.00 434.54,234.00 433.88,235.22C433.23,236.44 432.48,242.73 432.21,249.20C431.80,259.20 431.96,261.05 433.28,261.55C434.13,261.88 437.91,262.51 441.67,262.94C445.42,263.38 449.96,263.80 451.75,263.87zM341.50,259.95C339.85,259.93 336.81,259.31 334.74,258.57C332.67,257.83 330.23,256.62 329.32,255.86C328.41,255.11 326.39,252.50 324.83,250.05C322.82,246.89 322.00,244.33 322.00,241.17C322.00,238.73 322.55,234.88 323.23,232.62C323.93,230.27 326.23,226.73 328.57,224.38C330.84,222.11 334.39,219.70 336.47,219.01C338.65,218.29 342.12,218.02 344.66,218.37C347.08,218.70 350.65,220.05 352.59,221.36C354.52,222.68 357.18,225.21 358.50,226.99C359.81,228.77 361.36,232.45 361.94,235.17C362.71,238.76 362.69,241.36 361.85,244.70C361.09,247.71 359.28,250.75 356.59,253.54C354.07,256.16 350.97,258.21 348.50,258.89C346.30,259.49 343.15,259.97 341.50,259.95zM470.50,251.32C468.85,251.61 466.21,251.46 464.64,250.98C463.07,250.51 460.87,249.30 459.75,248.31C458.63,247.31 456.89,244.70 455.88,242.50C454.87,240.30 454.03,236.45 454.02,233.95C454.01,231.01 454.92,227.54 456.60,224.18C458.48,220.40 460.40,218.26 463.58,216.40C466.78,214.53 468.74,214.00 470.84,214.46C472.42,214.81 474.92,216.35 476.38,217.87C477.84,219.40 479.48,222.19 480.02,224.07C480.56,225.95 481.00,229.96 480.99,232.99C480.99,236.02 480.54,240.10 480.00,242.06C479.46,244.01 477.77,246.78 476.26,248.20C474.74,249.62 472.15,251.03 470.50,251.32zM345.12,241.99C345.45,241.99 346.92,241.07 348.37,239.93C350.12,238.55 351.00,236.89 351.00,234.98C351.00,233.40 349.93,230.87 348.60,229.33C346.50,226.88 345.86,226.66 343.39,227.53C341.83,228.08 339.89,229.73 339.06,231.20C337.94,233.19 337.81,234.57 338.55,236.66C339.09,238.20 340.65,240.02 342.02,240.71C343.38,241.41 344.78,241.98 345.12,241.99zM474.83,236.00C475.26,236.00 476.48,235.37 477.54,234.59C478.95,233.57 479.44,232.06 479.36,229.06C479.30,226.64 478.52,224.13 477.47,222.97C476.49,221.89 474.46,221.00 472.97,221.00C471.47,221.00 469.67,221.70 468.96,222.55C467.90,223.82 467.98,224.75 469.42,227.80C470.37,229.83 471.81,232.51 472.60,233.75C473.40,234.99 474.40,236.00 474.83,236.00zM438.04,198.35C438.51,197.88 440.30,194.12 442.02,190.00C443.74,185.88 446.33,179.35 447.78,175.50C449.22,171.65 450.83,168.21 451.35,167.85C451.87,167.49 452.02,166.51 451.70,165.66C451.37,164.81 448.49,162.05 445.30,159.54C442.11,157.02 436.57,153.20 433.00,151.04C429.43,148.88 422.97,145.94 418.66,144.50C413.96,142.94 407.55,141.69 402.66,141.38C398.17,141.11 393.89,141.30 393.14,141.81C392.38,142.34 392.04,143.56 392.38,144.63C392.71,145.66 394.45,148.13 396.24,150.13C398.03,152.12 402.43,156.39 406.00,159.61C409.57,162.83 415.23,168.63 418.56,172.49C421.89,176.34 426.20,181.75 428.13,184.50C430.07,187.25 432.90,191.68 434.43,194.35C435.95,197.02 437.58,198.82 438.04,198.35z" />

</svg>